<svg width="14" height="16" viewBox="0 0 14 16" fill="none" xmlns="http://www.w3.org/2000/svg">
<path d="M10.1663 4.17263V3.414C10.1663 3.14897 10.0611 2.8948 9.87365 2.70733L7.95899 0.792667C7.77152 0.605321 7.51739 0.500057 7.25232 0.5H1.83301C1.56779 0.5 1.31344 0.605357 1.1259 0.792893C0.938368 0.980427 0.833008 1.23479 0.833008 1.5V10.8333C0.833008 11.0985 0.938368 11.3529 1.1259 11.5405C1.31344 11.728 1.56779 11.8333 1.83301 11.8333H3.83051" stroke="#454D54" stroke-linecap="round" stroke-linejoin="round"/>
<path d="M13.1667 14.5001C13.1667 14.7653 13.0613 15.0197 12.8738 15.2072C12.6863 15.3947 12.4319 15.5001 12.1667 15.5001H4.83334C4.56813 15.5001 4.31377 15.3947 4.12624 15.2072C3.9387 15.0197 3.83334 14.7653 3.83334 14.5001V5.16675C3.83334 4.90153 3.9387 4.64717 4.12624 4.45964C4.31377 4.27211 4.56813 4.16675 4.83334 4.16675H10.2527C10.5177 4.1668 10.7719 4.27207 10.9593 4.45941L12.874 6.37408C13.0613 6.56155 13.1666 6.81575 13.1667 7.08075V14.5001Z" stroke="#454D54" stroke-linecap="round" stroke-linejoin="round"/>
<path d="M6.33347 7.33325H9.00013" stroke="#454D54" stroke-linecap="round"/>
<path d="M6.33347 10H10.6668" stroke="#454D54" stroke-linecap="round"/>
<path d="M6.33347 12.6667H10.6668" stroke="#454D54" stroke-linecap="round"/>
</svg>
