<?xml version="1.0" encoding="UTF-8" standalone="no"?>
<svg
   xmlns:dc="http://purl.org/dc/elements/1.1/"
   xmlns:cc="http://creativecommons.org/ns#"
   xmlns:rdf="http://www.w3.org/1999/02/22-rdf-syntax-ns#"
   xmlns:svg="http://www.w3.org/2000/svg"
   xmlns="http://www.w3.org/2000/svg"
   xmlns:sodipodi="http://sodipodi.sourceforge.net/DTD/sodipodi-0.dtd"
   xmlns:inkscape="http://www.inkscape.org/namespaces/inkscape"
   width="16"
   height="16"
   viewBox="0 0 16 16"
   fill="none"
   version="1.1"
   id="svg12"
   sodipodi:docname="nf_copy.svg"
   inkscape:version="1.0.1 (3bc2e813f5, 2020-09-07)">
  <metadata
     id="metadata18">
    <rdf:RDF>
      <cc:Work
         rdf:about="">
        <dc:format>image/svg+xml</dc:format>
        <dc:type
           rdf:resource="http://purl.org/dc/dcmitype/StillImage" />
        <dc:title></dc:title>
      </cc:Work>
    </rdf:RDF>
  </metadata>
  <defs
     id="defs16" />
  <sodipodi:namedview
     pagecolor="#ffffff"
     bordercolor="#666666"
     borderopacity="1"
     objecttolerance="10"
     gridtolerance="10"
     guidetolerance="10"
     inkscape:pageopacity="0"
     inkscape:pageshadow="2"
     inkscape:window-width="2560"
     inkscape:window-height="1009"
     id="namedview14"
     showgrid="false"
     inkscape:zoom="37.211494"
     inkscape:cx="6.4283656"
     inkscape:cy="9.0389775"
     inkscape:window-x="-8"
     inkscape:window-y="-8"
     inkscape:window-maximized="1"
     inkscape:current-layer="svg12" />
  <path
     d="M 11.166292,4.17263 V 3.414 c 0,-0.26503 -0.1052,-0.5192 -0.29265,-0.70667 L 8.958982,0.792667 C 8.771512,0.605321 8.517382,0.500057 8.252312,0.5 H 2.833002 C 2.567782,0.5 2.313432,0.605357 2.125892,0.792893 1.93836,0.980427 1.833,1.23479 1.833,1.5 v 9.3333 c 0,0.2652 0.10536,0.5196 0.292892,0.7072 0.18754,0.1875 0.44189,0.2928 0.70711,0.2928 h 1.9975"
     stroke="#454d54"
     stroke-linecap="round"
     stroke-linejoin="round"
     id="path2" />
  <path
     d="m 14.166692,14.5001 c 0,0.2652 -0.1054,0.5196 -0.2929,0.7071 -0.1875,0.1875 -0.4419,0.2929 -0.7071,0.2929 h -7.33336 c -0.26521,0 -0.51957,-0.1054 -0.7071,-0.2929 -0.18754,-0.1875 -0.2929,-0.4419 -0.2929,-0.7071 V 5.16675 c 0,-0.26522 0.10536,-0.51958 0.2929,-0.70711 0.18753,-0.18753 0.44189,-0.29289 0.7071,-0.29289 h 5.41936 c 0.265,5e-5 0.5192,0.10532 0.7066,0.29266 l 1.9147,1.91467 c 0.1873,0.18747 0.2926,0.44167 0.2927,0.70667 z"
     stroke="#454d54"
     stroke-linecap="round"
     stroke-linejoin="round"
     id="path4" />
  <path
     d="m 7.333462,7.33325 h 2.66666"
     stroke="#454d54"
     stroke-linecap="round"
     id="path6" />
  <path
     d="m 7.333462,10 h 4.33333"
     stroke="#454d54"
     stroke-linecap="round"
     id="path8" />
  <path
     d="m 7.333462,12.6667 h 4.33333"
     stroke="#454d54"
     stroke-linecap="round"
     id="path10" />
</svg>
