<?xml version="1.0" encoding="UTF-8" standalone="no"?>
<svg
   xmlns:dc="http://purl.org/dc/elements/1.1/"
   xmlns:cc="http://creativecommons.org/ns#"
   xmlns:rdf="http://www.w3.org/1999/02/22-rdf-syntax-ns#"
   xmlns:svg="http://www.w3.org/2000/svg"
   xmlns="http://www.w3.org/2000/svg"
   xmlns:sodipodi="http://sodipodi.sourceforge.net/DTD/sodipodi-0.dtd"
   xmlns:inkscape="http://www.inkscape.org/namespaces/inkscape"
   width="16"
   height="16"
   viewBox="0 0 16 16"
   fill="none"
   version="1.1"
   id="svg6"
   sodipodi:docname="nf_link.svg"
   inkscape:version="1.0.1 (3bc2e813f5, 2020-09-07)">
  <metadata
     id="metadata12">
    <rdf:RDF>
      <cc:Work
         rdf:about="">
        <dc:format>image/svg+xml</dc:format>
        <dc:type
           rdf:resource="http://purl.org/dc/dcmitype/StillImage" />
        <dc:title></dc:title>
      </cc:Work>
    </rdf:RDF>
  </metadata>
  <defs
     id="defs10" />
  <sodipodi:namedview
     pagecolor="#ffffff"
     bordercolor="#666666"
     borderopacity="1"
     objecttolerance="10"
     gridtolerance="10"
     guidetolerance="10"
     inkscape:pageopacity="0"
     inkscape:pageshadow="2"
     inkscape:window-width="2560"
     inkscape:window-height="1009"
     id="namedview8"
     showgrid="false"
     inkscape:zoom="42.527422"
     inkscape:cx="11.981763"
     inkscape:cy="8.7631133"
     inkscape:window-x="-8"
     inkscape:window-y="-8"
     inkscape:window-maximized="1"
     inkscape:current-layer="svg6" />
  <path
     d="m 6.24267,12.24966 -0.62133,0.6213 c -0.56262,0.5626 -1.32568,0.8787 -2.12134,0.8787 -0.79565,0 -1.55872,-0.3161 -2.12133,-0.8787 -0.562613,-0.5626 -0.878685,-1.3257 -0.878685,-2.12132 0,-0.79566 0.316072,-1.55873 0.878685,-2.12134 l 3.182,-3.18267 C 5.09415,4.91095 5.80969,4.59717 6.56439,4.56696 7.3191,4.53675 8.05743,4.79233 8.63194,5.28266 9.20645,5.773 9.57486,6.462 9.66361,7.21207 9.75235,7.96215 9.5549,8.7181 9.11067,9.32897"
     stroke="#454d54"
     stroke-linecap="round"
     stroke-linejoin="round"
     id="path2" />
  <path
     d="m 9.87867,3.62769 0.50003,-0.5 C 10.9413,2.56507 11.7044,2.249 12.5,2.249 c 0.7957,0 1.5587,0.31607 2.1213,0.87869 C 15.184,3.6903 15.5,4.45337 15.5,5.24902 c 0,0.79565 -0.316,1.55872 -0.8787,2.12133 l -3.182,3.182 c -0.5336,0.53451 -1.2491,0.84801 -2.00372,0.87801 -0.75463,0.0301 -1.49282,-0.2256 -2.0672,-0.71601 C 6.79401,10.22398 6.42572,9.53501 6.33704,8.78501 6.24837,8.03501 6.44583,7.27915 6.89001,6.66835"
     stroke="#454d54"
     stroke-linecap="round"
     stroke-linejoin="round"
     id="path4" />
</svg>
