<svg width="16" height="14" viewBox="0 0 16 14" fill="none" xmlns="http://www.w3.org/2000/svg">
<path d="M6.24267 11.3333L5.62134 11.9546C5.05872 12.5172 4.29566 12.8333 3.5 12.8333C2.70435 12.8333 1.94128 12.5172 1.37867 11.9546C0.816057 11.392 0.499985 10.6289 0.499985 9.83328C0.499985 9.03762 0.816057 8.27455 1.37867 7.71194L4.56067 4.52927C5.09415 3.99459 5.80969 3.68081 6.56439 3.6506C7.3191 3.62039 8.05743 3.87597 8.63194 4.3663C9.20645 4.85664 9.57486 5.54564 9.66361 6.29571C9.75235 7.04579 9.5549 7.80174 9.11067 8.41261" stroke="#454D54" stroke-linecap="round" stroke-linejoin="round"/>
<path d="M9.87867 2.71133L10.3787 2.21133C10.9413 1.64871 11.7044 1.33264 12.5 1.33264C13.2957 1.33264 14.0587 1.64871 14.6213 2.21133C15.184 2.77394 15.5 3.53701 15.5 4.33266C15.5 5.12831 15.184 5.89138 14.6213 6.45399L11.4393 9.63599C10.9057 10.1705 10.1902 10.484 9.43558 10.514C8.68095 10.5441 7.94276 10.2884 7.36838 9.79799C6.79401 9.30762 6.42572 8.61865 6.33704 7.86865C6.24837 7.11865 6.44583 6.36279 6.89001 5.75199" stroke="#454D54" stroke-linecap="round" stroke-linejoin="round"/>
</svg>
