<svg width="16" height="16" viewBox="0 0 16 16" fill="none" xmlns="http://www.w3.org/2000/svg">
<path d="M12.0384 14.9231H3.96146C3.65544 14.9231 3.36196 14.8016 3.14557 14.5852C2.92918 14.3688 2.80762 14.0753 2.80762 13.7692V3.38464H13.1922V13.7692C13.1922 14.0753 13.0707 14.3688 12.8543 14.5852C12.6379 14.8016 12.3444 14.9231 12.0384 14.9231Z" stroke="#F32448" stroke-linecap="round" stroke-linejoin="round"/>
<path d="M6.26921 11.4616V6.84619" stroke="#F32448" stroke-linecap="round" stroke-linejoin="round"/>
<path d="M9.7308 11.4616V6.84619" stroke="#F32448" stroke-linecap="round" stroke-linejoin="round"/>
<path d="M0.5 3.38464H15.5" stroke="#F32448" stroke-linecap="round" stroke-linejoin="round"/>
<path d="M9.7308 1.0769H6.26924C5.96323 1.0769 5.66974 1.19847 5.45336 1.41486C5.23696 1.63124 5.1154 1.92473 5.1154 2.23075V3.3846H10.8846V2.23075C10.8846 1.92473 10.7631 1.63124 10.5467 1.41486C10.3303 1.19847 10.0368 1.0769 9.7308 1.0769Z" stroke="#F32448" stroke-linecap="round" stroke-linejoin="round"/>
</svg>
