<svg width="16" height="16" viewBox="0 0 16 16" fill="none" xmlns="http://www.w3.org/2000/svg">
<g clip-path="url(#clip0_2049_17589)">
<path d="M8.87525 1.51672C8.78879 1.36026 8.66199 1.22982 8.50805 1.13899C8.35412 1.04815 8.17865 1.00024 7.99992 1.00024C7.82112 1.00024 7.64565 1.04815 7.49172 1.13899C7.33779 1.22982 7.21099 1.36026 7.12459 1.51672L0.624564 13.5167C0.540509 13.669 0.497611 13.8405 0.500103 14.0144C0.502595 14.1883 0.550391 14.3585 0.638773 14.5083C0.727159 14.6581 0.853065 14.7822 1.00409 14.8685C1.1551 14.9547 1.32599 15.0001 1.4999 15.0001H14.4999C14.6738 15.0001 14.8447 14.9547 14.9957 14.8685C15.1467 14.7822 15.2727 14.6581 15.3611 14.5083C15.4494 14.3585 15.4972 14.1883 15.4997 14.0144C15.5022 13.8405 15.4593 13.669 15.3753 13.5167L8.87525 1.51672Z" stroke="#454D54" stroke-linecap="round" stroke-linejoin="round"/>
<path d="M8 10V5.5" stroke="#454D54" stroke-linecap="round" stroke-linejoin="round"/>
<path d="M8 12.5C7.86193 12.5 7.75 12.3881 7.75 12.25C7.75 12.1119 7.86193 12 8 12" stroke="#454D54"/>
<path d="M8 12.5C8.13807 12.5 8.25 12.3881 8.25 12.25C8.25 12.1119 8.13807 12 8 12" stroke="#454D54"/>
</g>
<defs>
<clipPath id="clip0_2049_17589">
<rect width="16" height="16" fill="white"/>
</clipPath>
</defs>
</svg>
