<svg width="24" height="24" viewBox="0 0 24 24" fill="none" xmlns="http://www.w3.org/2000/svg">
<g clip-path="url(#clip0_1884_1207)">
<g clip-path="url(#clip1_1884_1207)">
<path d="M16.5251 13.3615C16.5332 12.655 16.7198 11.9621 17.0673 11.3474C17.4148 10.7328 17.912 10.2164 18.5125 9.84649C18.1303 9.30175 17.6276 8.85292 17.0438 8.53501C16.46 8.21711 15.8109 8.03873 15.147 8.01378C13.7126 7.87281 12.3345 8.85965 11.6221 8.85965C10.9096 8.85965 9.7471 8.03258 8.58463 8.05138C7.80331 8.0722 7.04081 8.29626 6.37191 8.70158C5.70301 9.1069 5.15068 9.67956 4.7691 10.3634C3.14726 13.1829 4.35661 17.3747 5.94094 19.6679C6.70968 20.7863 7.63778 22.0457 8.84712 21.9987C10.0565 21.9517 10.4596 21.2468 11.8658 21.2468C13.272 21.2468 13.6751 21.9987 14.9032 21.9799C16.1313 21.9611 16.9563 20.8333 17.7157 19.7149C18.265 18.9161 18.6975 18.0426 19 17.1209C18.2648 16.8071 17.6381 16.2833 17.198 15.6148C16.7578 14.9462 16.5238 14.1625 16.5251 13.3615Z" stroke="#8F99A3" stroke-width="1.5" stroke-linecap="round" stroke-linejoin="round"/>
<path d="M14.6885 4.43212C15.6244 3.47825 16.09 2.24626 15.9856 1C14.5654 1.11445 13.2511 1.69655 12.316 2.62524C11.846 3.08269 11.4887 3.6177 11.2657 4.19782C11.0428 4.77793 10.9588 5.39105 11.0188 6C11.7289 5.99857 12.4291 5.85644 13.0654 5.58459C13.7017 5.31274 14.257 4.91844 14.6885 4.43212Z" stroke="#8F99A3" stroke-width="1.5" stroke-linecap="round" stroke-linejoin="round"/>
</g>
</g>
<defs>
<clipPath id="clip0_1884_1207">
<rect width="24" height="24" fill="white"/>
</clipPath>
<clipPath id="clip1_1884_1207">
<rect width="24" height="24" fill="white" transform="translate(0.40918 0.479248)"/>
</clipPath>
</defs>
</svg>
