<svg width="24" height="24" viewBox="0 0 24 24" fill="none" xmlns="http://www.w3.org/2000/svg">
<path d="M3 21L3.75943 18.3415C3.78784 18.2422 3.84236 18.1557 3.91528 18.0944C3.98819 18.0331 4.0758 18.0001 4.16571 18H19.8343C19.9242 18.0001 20.0118 18.0331 20.0847 18.0944C20.1576 18.1557 20.2122 18.2422 20.2406 18.3415L21 20.996" stroke="#ABB3BA" stroke-linecap="round" stroke-linejoin="round"/>
<path d="M5 10H19V18H5V10Z" stroke="#ABB3BA" stroke-linecap="round" stroke-linejoin="round"/>
<path d="M22 21H2" stroke="#ABB3BA" stroke-linecap="round" stroke-linejoin="round"/>
<path d="M7.5 10V18" stroke="#ABB3BA" stroke-linecap="round" stroke-linejoin="round"/>
<path d="M10 10V18" stroke="#ABB3BA" stroke-linecap="round" stroke-linejoin="round"/>
<path d="M14 10V18" stroke="#ABB3BA" stroke-linecap="round" stroke-linejoin="round"/>
<path d="M16.5 10V18" stroke="#ABB3BA" stroke-linecap="round" stroke-linejoin="round"/>
<path d="M20.9778 7.66065C21.0094 7.56246 21.0072 7.45597 20.9715 7.35928C20.9359 7.26258 20.869 7.18166 20.7822 7.13025L12.2181 2.06002C12.1523 2.0207 12.0777 2 12.0017 2C11.9258 2 11.8512 2.0207 11.7854 2.06002L3.21777 7.12666C3.131 7.17807 3.06411 7.259 3.02846 7.35569C2.9928 7.45239 2.99059 7.55888 3.02219 7.65707L3.68336 9.69358C3.71205 9.78275 3.7671 9.86032 3.84071 9.91531C3.91433 9.9703 4.00279 9.99993 4.09357 10H19.9134C20.0041 9.99993 20.0926 9.9703 20.1662 9.91531C20.2398 9.86032 20.2949 9.78275 20.3236 9.69358L20.9778 7.66065Z" stroke="#ABB3BA" stroke-linecap="round" stroke-linejoin="round"/>
<path d="M21 7.5H3" stroke="#ABB3BA" stroke-linecap="round" stroke-linejoin="round"/>
</svg>
