<svg width="24" height="24" viewBox="0 0 24 24" fill="none" xmlns="http://www.w3.org/2000/svg">
<g clip-path="url(#clip0_289_2388)">
<path fill-rule="evenodd" clip-rule="evenodd" d="M6.00632 21.5H22C22.2761 21.5 22.5 21.2761 22.5 21C22.5 20.7239 22.2761 20.5 22 20.5H21.3782L20.7213 18.2041C20.668 18.0175 20.5622 17.8426 20.4065 17.7117C20.2494 17.5796 20.0495 17.5002 19.8347 17.5H19.8343H19.5V10.5H19.9134H19.9137C20.1137 10.4998 20.3067 10.4345 20.4654 10.3159C20.6239 10.1975 20.7397 10.0327 20.7995 9.84671L21.4538 7.81383L21.4021 7.79721L21.4538 7.81383C21.4858 7.71447 21.5011 7.61114 21.4999 7.50803L21.5 7.5C21.5 7.48303 21.4992 7.46626 21.4975 7.44972C21.4911 7.36024 21.4721 7.27151 21.4407 7.18629C21.3662 6.98437 21.225 6.81144 21.0371 6.70009L21.037 6.69999L20.8921 6.61423L19.5063 8H20.3433L19.8606 9.5H19H18.0063L17.0063 10.5H18.5V17.5H17V10.5063L16 11.5063V17.5H14.5V13.0063L13.5 14.0063V17.5H10.5V17.0063L9.00632 18.5H10H14H16.5H19H19.7658L20.338 20.5H7.00632L6.00632 21.5ZM11.7281 8H3.65921L4.14621 9.5H5H7.5H10H10.2281L9.22815 10.5H8V11.7281L7 12.7281V10.5H5.5V14.2281L4.5 15.2281V10.5H4.09357H4.09318C3.89327 10.4998 3.70027 10.4345 3.54149 10.3159C3.38319 10.1976 3.26751 10.0331 3.20762 9.84743L3.20739 9.84671L2.54662 7.81147L2.54623 7.81024C2.51447 7.71155 2.49909 7.60894 2.50004 7.50652L2.5 7.5C2.5 7.48622 2.50056 7.47257 2.50165 7.45907C2.50715 7.36521 2.5264 7.27203 2.55933 7.18271C2.63379 6.98078 2.77496 6.80786 2.96289 6.6965L2.96326 6.69629L11.5288 1.63084L11.53 1.63013C11.6723 1.54536 11.8351 1.5 12.0017 1.5C12.1684 1.5 12.3312 1.54538 12.4735 1.63019L12.4746 1.63084L16.0064 3.72175L15.2764 4.45171L12.0017 2.51297L4.41422 7H12.7281L11.7281 8Z" fill="#ABB3BA"/>
<path d="M0.808528 22.8087C0.515635 22.5158 0.515635 22.0409 0.808528 21.748L22.026 0.530557C22.3188 0.237664 22.7937 0.237663 23.0866 0.530556C23.3795 0.82345 23.3795 1.29832 23.0866 1.59122L1.86919 22.8086C1.5763 23.1015 1.10142 23.1015 0.808528 22.8087Z" fill="#ABB3BA"/>
</g>
<defs>
<clipPath id="clip0_289_2388">
<rect width="24" height="24" fill="white"/>
</clipPath>
</defs>
</svg>
