<svg width="24" height="24" viewBox="0 0 24 24" fill="none" xmlns="http://www.w3.org/2000/svg">
<g clip-path="url(#clip0_355_3228)">
<path d="M0.808528 22.8087C0.515635 22.5158 0.515635 22.0409 0.808528 21.748L22.026 0.530557C22.3188 0.237664 22.7937 0.237663 23.0866 0.530556C23.3795 0.82345 23.3795 1.29832 23.0866 1.59122L1.86919 22.8086C1.5763 23.1015 1.10142 23.1015 0.808528 22.8087Z" fill="#ABB3BA"/>
<path fill-rule="evenodd" clip-rule="evenodd" d="M19.7559 4.92202C19.4183 4.55236 19.0547 4.20692 18.668 3.88861L17.9572 4.59942C18.3473 4.91389 18.7121 5.25858 19.048 5.62993L19.7559 4.92202ZM16.2293 8.44856C15.9169 8.03952 15.4952 7.72578 15.0124 7.54415L14.2067 8.34987L14.497 8.42764C14.916 8.53992 15.2773 8.80349 15.5122 9.16567L16.2293 8.44856ZM13.022 11.6559L11.349 11.2076L10.5325 12.0241L12.2055 12.4724L13.022 11.6559ZM14.1953 13.311L16.7088 10.7976C16.706 10.8083 16.7032 10.819 16.7003 10.8298C16.5116 11.5343 16.0507 12.1349 15.419 12.4996C15.2808 12.5794 15.1369 12.6465 14.989 12.7006C15.09 12.8214 15.1811 12.9515 15.2609 13.0897C15.6256 13.7213 15.7244 14.4719 15.5357 15.1764C15.3469 15.8809 14.886 16.4816 14.2544 16.8463C13.6227 17.2109 12.8721 17.3097 12.1676 17.121L11.2017 16.8622L10.8135 18.311C10.742 18.5778 10.4678 18.7361 10.2011 18.6646C9.93435 18.5931 9.77606 18.319 9.84753 18.0522L9.99154 17.5148L11.5785 15.9278L12.4264 16.1551C12.8747 16.2752 13.3524 16.2123 13.7544 15.9802C14.1563 15.7482 14.4496 15.3659 14.5697 14.9176C14.6899 14.4693 14.627 13.9916 14.3949 13.5897C14.3372 13.4898 14.2702 13.3965 14.1953 13.311ZM9.34777 15.3301L8.56273 15.1198L8.97484 13.5817L7.56063 14.9959L7.46739 15.3439C7.39592 15.6107 7.55421 15.8848 7.82094 15.9563L8.53127 16.1466L9.34777 15.3301ZM5.62994 19.048C5.25858 18.7121 4.91389 18.3473 4.59942 17.9572L3.88861 18.668C4.20693 19.0547 4.55237 19.4183 4.92202 19.7559L5.62994 19.048ZM2.75182 16.9763L3.49362 16.2345C2.85771 14.9596 2.5 13.5216 2.5 12C2.5 6.75329 6.75329 2.5 12 2.5C13.5216 2.5 14.9596 2.85771 16.2345 3.49362L16.9763 2.75182C15.4953 1.95322 13.8006 1.5 12 1.5C6.20101 1.5 1.5 6.20101 1.5 12C1.5 13.8006 1.95323 15.4953 2.75182 16.9763ZM14.1881 5.54008C14.156 5.35378 14.0191 5.19378 13.8246 5.14164C13.5578 5.07017 13.2836 5.22846 13.2122 5.49519L12.8385 6.8896L14.1881 5.54008ZM12.7925 6.93565L10.4091 6.29703C10.1424 6.22556 9.86823 6.38385 9.79676 6.65059L8.63214 10.997L8.63208 10.9973L8.63201 10.9975L8.59591 11.1322L10.0101 9.71802L10.6333 7.39237L11.976 7.75215L12.7925 6.93565ZM6.53739 20.9689L7.26728 20.239C8.66069 21.0412 10.2768 21.5 12 21.5C17.2467 21.5 21.5 17.2467 21.5 12C21.5 10.2768 21.0412 8.66069 20.239 7.26728L20.9689 6.53739C21.9403 8.12886 22.5 9.99907 22.5 12C22.5 17.799 17.799 22.5 12 22.5C9.99907 22.5 8.12886 21.9403 6.53739 20.9689Z" fill="#ABB3BA"/>
</g>
<defs>
<clipPath id="clip0_355_3228">
<rect width="24" height="24" fill="white"/>
</clipPath>
</defs>
</svg>
