<svg width="24" height="24" viewBox="0 0 24 24" fill="none" xmlns="http://www.w3.org/2000/svg">
<g clip-path="url(#clip0_1884_1189)">
<path d="M9.11499 11.1265L13.4617 12.2912" stroke="#8F99A3" stroke-width="1.5" stroke-linecap="round" stroke-linejoin="round"/>
<path d="M13.1774 7.55612L13.6951 5.62427" stroke="#8F99A3" stroke-width="1.5" stroke-linecap="round" stroke-linejoin="round"/>
<path d="M10.8481 16.2495L10.3305 18.1814" stroke="#8F99A3" stroke-width="1.5" stroke-linecap="round" stroke-linejoin="round"/>
<path d="M14.6265 7.94447C15.2029 8.09892 15.6943 8.47601 15.9927 8.9928C16.291 9.50959 16.3719 10.1237 16.2174 10.7001C16.063 11.2766 15.6859 11.768 15.1691 12.0664C14.6523 12.3647 14.0382 12.4456 13.4618 12.2911C14.0382 12.4456 14.5296 12.8227 14.828 13.3395C15.1263 13.8563 15.2072 14.4704 15.0528 15.0468C14.8983 15.6232 14.5212 16.1147 14.0044 16.413C13.4876 16.7114 12.8735 16.7923 12.2971 16.6378L7.95041 15.4731L10.2798 6.77979L14.6265 7.94447Z" stroke="#8F99A3" stroke-width="1.5" stroke-linecap="round" stroke-linejoin="round"/>
<path d="M12 23.25C18.2132 23.25 23.25 18.2132 23.25 12C23.25 5.7868 18.2132 0.75 12 0.75C5.7868 0.75 0.75 5.7868 0.75 12C0.75 18.2132 5.7868 23.25 12 23.25Z" stroke="#8F99A3" stroke-width="1.5" stroke-linecap="round" stroke-linejoin="round"/>
</g>
<defs>
<clipPath id="clip0_1884_1189">
<rect width="24" height="24" fill="white"/>
</clipPath>
</defs>
</svg>
