<svg width="24" height="25" viewBox="0 0 24 25" fill="none" xmlns="http://www.w3.org/2000/svg">
<g clip-path="url(#clip0_289_2453)">
<path fill-rule="evenodd" clip-rule="evenodd" d="M7.39084 21.1155H18.4348C19.5929 21.1155 20.5 20.1463 20.5 18.9905V17.6155H21.3478C22.5286 17.6155 23.5 16.6719 23.5 15.4905V5.74048C23.5 5.51843 23.4657 5.30478 23.4021 5.10421L22.5 6.00632V15.4905C22.5 16.104 21.992 16.6155 21.3478 16.6155H20.5V11V9.24048C20.5 8.88366 20.4135 8.54462 20.2599 8.24639L19.4808 9.02549C19.4934 9.09476 19.5 9.1666 19.5 9.24048V10.5H18.0063L17.0063 11.5H19.5V18.9905C19.5 19.6296 19.0056 20.1155 18.4348 20.1155H8.39084L7.39084 21.1155ZM4.61267 16.1155L3.70727 17.0209C3.5817 16.93 3.5 16.7823 3.5 16.6155C3.5 16.3393 3.72386 16.1155 4 16.1155H4.61267ZM7.61267 13.1155L6.61267 14.1155H4C3.72386 14.1155 3.5 13.8916 3.5 13.6155C3.5 13.3393 3.72386 13.1155 4 13.1155H7.61267ZM9.22815 11.5H2.5V18.2281L1.51165 19.2165C1.50395 19.1421 1.5 19.0667 1.5 18.9905V11V9.24048C1.5 8.10649 2.37325 7.15208 3.5 7.11651V5.74048C3.5 4.55909 4.47141 3.61548 5.65217 3.61548H17.1127L16.1127 4.61548H5.65217C5.008 4.61548 4.5 5.12694 4.5 5.74048V7.11548H13.6127L12.6127 8.11548H4.5H3.56522C2.99441 8.11548 2.5 8.60133 2.5 9.24048V10.5H10.2281L9.22815 11.5ZM14.5961 13.9102C14.687 14.0347 14.8341 14.1155 15 14.1155H17C17.2761 14.1155 17.5 13.8916 17.5 13.6155C17.5 13.3393 17.2761 13.1155 17 13.1155H15.3908L14.5961 13.9102Z" fill="#ABB3BA"/>
<path d="M0.808528 23.8087C0.515635 23.5158 0.515635 23.0409 0.808528 22.748L22.026 1.53056C22.3188 1.23766 22.7937 1.23766 23.0866 1.53056C23.3795 1.82345 23.3795 2.29832 23.0866 2.59122L1.86919 23.8086C1.5763 24.1015 1.10142 24.1015 0.808528 23.8087Z" fill="#ABB3BA"/>
</g>
<defs>
<clipPath id="clip0_289_2453">
<rect width="24" height="24" fill="white" transform="translate(0 0.615479)"/>
</clipPath>
</defs>
</svg>
