<svg width="16" height="16" viewBox="0 0 16 16" fill="none" xmlns="http://www.w3.org/2000/svg">
<path d="M8 14C11.3137 14 14 11.3137 14 8C14 4.68629 11.3137 2 8 2C4.68629 2 2 4.68629 2 8C2 11.3137 4.68629 14 8 14Z" stroke="#8F99A3" stroke-linecap="round" stroke-linejoin="round"/>
<path d="M7 6.99805H8V10.998" stroke="#8F99A3" stroke-linecap="round" stroke-linejoin="round"/>
<path d="M7 10.998H9" stroke="#8F99A3" stroke-linecap="round" stroke-linejoin="round"/>
<path d="M8 5C7.86193 5 7.75 4.88807 7.75 4.75C7.75 4.61193 7.86193 4.5 8 4.5" stroke="#8F99A3"/>
<path d="M8 5C8.13807 5 8.25 4.88807 8.25 4.75C8.25 4.61193 8.13807 4.5 8 4.5" stroke="#8F99A3"/>
</svg>
