<svg width="16" height="16" viewBox="0 0 16 16" fill="none" xmlns="http://www.w3.org/2000/svg">
<g clip-path="url(#clip0_2605_20341)">
<path d="M0.707336 1.70667V5.878C0.707273 6.40829 0.917815 6.9169 1.29267 7.292L9 15C9.18753 15.1875 9.44184 15.2928 9.707 15.2928C9.97217 15.2928 10.2265 15.1875 10.414 15L15 10.4133C15.1875 10.2258 15.2928 9.9715 15.2928 9.70633C15.2928 9.44117 15.1875 9.18686 15 8.99933L7.29267 1.292C6.91758 0.917144 6.40896 0.706602 5.87867 0.706665H1.70734C1.44212 0.706665 1.18777 0.812022 1.00023 0.999558C0.812693 1.18709 0.707336 1.44145 0.707336 1.70667Z" stroke="#ABB3BA" stroke-linecap="round" stroke-linejoin="round"/>
<path d="M3.20734 4.20667C3.20734 4.33799 3.2332 4.46802 3.28346 4.58935C3.33371 4.71067 3.40737 4.82091 3.50023 4.91377C3.59309 5.00663 3.70333 5.08029 3.82465 5.13054C3.94598 5.1808 4.07601 5.20667 4.20734 5.20667C4.33866 5.20667 4.46869 5.1808 4.59002 5.13054C4.71135 5.08029 4.82158 5.00663 4.91444 4.91377C5.0073 4.82091 5.08096 4.71067 5.13122 4.58935C5.18147 4.46802 5.20734 4.33799 5.20734 4.20667C5.20734 4.07534 5.18147 3.94531 5.13122 3.82398C5.08096 3.70266 5.0073 3.59242 4.91444 3.49956C4.82158 3.4067 4.71135 3.33304 4.59002 3.28279C4.46869 3.23253 4.33866 3.20667 4.20734 3.20667C4.07601 3.20667 3.94598 3.23253 3.82465 3.28279C3.70333 3.33304 3.59309 3.4067 3.50023 3.49956C3.40737 3.59242 3.33371 3.70266 3.28346 3.82398C3.2332 3.94531 3.20734 4.07534 3.20734 4.20667Z" stroke="#ABB3BA" stroke-linecap="round" stroke-linejoin="round"/>
</g>
<defs>
<clipPath id="clip0_2605_20341">
<rect width="16" height="16" fill="white"/>
</clipPath>
</defs>
</svg>
