<svg width="24" height="24" viewBox="0 0 24 24" fill="none" xmlns="http://www.w3.org/2000/svg">
<g clip-path="url(#clip0_355_3256)">
<path fill-rule="evenodd" clip-rule="evenodd" d="M12.2346 10.3218C12.5297 10.7285 12.8709 11.0995 13.2506 11.4272L13.96 10.7178C13.5754 10.3949 13.236 10.0201 12.9523 9.60412L12.2346 10.3218ZM18.5692 1.15881C18.2166 1.08749 17.8517 1.05005 17.4781 1.05005C14.4549 1.05005 12.0042 3.5008 12.0042 6.52396C12.0042 6.8976 12.0416 7.2625 12.1129 7.61511L11.2914 8.43667C11.1047 7.83214 11.0042 7.18979 11.0042 6.52396C11.0042 2.94852 13.9026 0.0500488 17.4781 0.0500488C18.1439 0.0500488 18.7862 0.150566 19.3908 0.337252L18.5692 1.15881ZM14.5198 8.03662H15.3048C15.4347 8.33392 15.603 8.61467 15.8065 8.87125L16.52 8.15774C16.4912 8.11805 16.4634 8.07767 16.4367 8.03662H16.6411L17.6411 7.03662H16.0364C16.0075 6.88279 15.9915 6.72587 15.989 6.5674L14.5198 8.03662ZM18.8101 3.74634L19.6433 2.91319C19.7223 3.00163 19.7704 3.11837 19.7704 3.24634C19.7704 3.52248 19.5466 3.74634 19.2704 3.74634H18.8101ZM21.6719 3.00589C21.349 2.62135 20.9741 2.28188 20.5582 1.99824L21.2759 1.28052C21.6826 1.57559 22.0536 1.91682 22.3813 2.2965L21.6719 3.00589ZM18.2526 9.2536L17.4438 10.0624C17.8628 10.2191 18.3103 10.3015 18.7663 10.3015H19.2704C19.5466 10.3015 19.7704 10.0777 19.7704 9.80151C19.7704 9.52537 19.5466 9.30151 19.2704 9.30151H18.7663C18.5927 9.30151 18.4208 9.28526 18.2526 9.2536ZM15.7776 11.7286C16.3128 11.9034 16.8844 11.9979 17.4781 11.9979C20.5012 11.9979 22.952 9.54712 22.952 6.52396C22.952 5.93033 22.8575 5.35877 22.6827 4.82351L23.4606 4.04559C23.7772 4.80897 23.952 5.64606 23.952 6.52396C23.952 10.0994 21.0535 12.9979 17.4781 12.9979C16.6001 12.9979 15.763 12.8232 14.9997 12.5065L15.7776 11.7286Z" fill="#ABB3BA"/>
<path fill-rule="evenodd" clip-rule="evenodd" d="M4.58911 17.9673H6.71043L7.71043 16.9673H5.58911L4.58911 17.9673ZM9.53886 17.9673H16.9434C17.2195 17.9673 17.4434 17.7434 17.4434 17.4673C17.4434 17.1911 17.2195 16.9673 16.9434 16.9673H10.5389L9.53886 17.9673Z" fill="#ABB3BA"/>
<path d="M17 13.3043V20.2609C17 20.7222 16.7893 21.1645 16.4143 21.4907C16.0391 21.8169 15.5304 22 15 22H6M4 15.5V3.73913C4 3.27789 4.21071 2.83553 4.58578 2.50938C4.96086 2.18323 5.46957 2 6 2H13.5" stroke="#ABB3BA" stroke-linecap="round" stroke-linejoin="round"/>
<path d="M10.7489 19.9978C10.6114 19.9978 10.5 19.8863 10.5 19.7489C10.5 19.6114 10.6114 19.5 10.7489 19.5" stroke="#ABB3BA" stroke-linecap="round" stroke-linejoin="round"/>
<path d="M10.749 19.9978C10.8865 19.9978 10.9979 19.8863 10.9979 19.7489C10.9979 19.6114 10.8865 19.5 10.749 19.5" stroke="#ABB3BA" stroke-linecap="round" stroke-linejoin="round"/>
<path d="M0.80865 22.8087C0.515757 22.5158 0.515757 22.0409 0.80865 21.748L22.0261 0.530557C22.319 0.237664 22.7938 0.237663 23.0867 0.530556C23.3796 0.82345 23.3796 1.29832 23.0867 1.59122L1.86931 22.8086C1.57642 23.1015 1.10154 23.1015 0.80865 22.8087Z" fill="#ABB3BA"/>
</g>
<defs>
<clipPath id="clip0_355_3256">
<rect width="24" height="24" fill="white"/>
</clipPath>
</defs>
</svg>
