<svg width="24" height="24" viewBox="0 0 24 24" fill="none" xmlns="http://www.w3.org/2000/svg">
<path d="M16.9435 17.4673H4" stroke="#454D54" stroke-linecap="round" stroke-linejoin="round"/>
<path d="M17 13.3043V20.2609C17 20.7222 16.7893 21.1645 16.4143 21.4907C16.0391 21.8169 15.5304 22 15 22H6C5.46957 22 4.96086 21.8169 4.58578 21.4907C4.21071 21.1645 4 20.7222 4 20.2609V3.73913C4 3.27789 4.21071 2.83553 4.58578 2.50938C4.96086 2.18323 5.46957 2 6 2H13.5" stroke="#454D54" stroke-linecap="round" stroke-linejoin="round"/>
<path d="M10.7489 19.9978C10.6114 19.9978 10.5 19.8863 10.5 19.7489C10.5 19.6114 10.6114 19.5 10.7489 19.5" stroke="#454D54" stroke-linecap="round" stroke-linejoin="round"/>
<path d="M10.7489 19.9978C10.8864 19.9978 10.9978 19.8863 10.9978 19.7489C10.9978 19.6114 10.8864 19.5 10.7489 19.5" stroke="#454D54" stroke-linecap="round" stroke-linejoin="round"/>
<path fill-rule="evenodd" clip-rule="evenodd" d="M17.4781 0.0500488C13.9027 0.0500488 11.0042 2.94852 11.0042 6.52396C11.0042 10.0994 13.9027 12.9979 17.4781 12.9979C21.0536 12.9979 23.952 10.0994 23.952 6.52396C23.952 2.94852 21.0536 0.0500488 17.4781 0.0500488ZM12.0042 6.52396C12.0042 3.5008 14.455 1.05005 17.4781 1.05005C20.5013 1.05005 22.952 3.5008 22.952 6.52396C22.952 9.54712 20.5013 11.9979 17.4781 11.9979C14.455 11.9979 12.0042 9.54712 12.0042 6.52396ZM18.7664 2.74634C17.7645 2.74634 16.8037 3.14433 16.0952 3.85276C15.7585 4.18946 15.4919 4.58319 15.3049 5.01123H14.5008C14.2247 5.01123 14.0008 5.23509 14.0008 5.51123C14.0008 5.78737 14.2247 6.01123 14.5008 6.01123H15.0237C15.0006 6.18019 14.9888 6.35145 14.9888 6.52393C14.9888 6.6964 15.0006 6.86766 15.0237 7.03662H14.5008C14.2247 7.03662 14.0008 7.26048 14.0008 7.53662C14.0008 7.81276 14.2247 8.03662 14.5008 8.03662H15.3049C15.4919 8.46466 15.7585 8.85838 16.0952 9.19509C16.8037 9.90351 17.7645 10.3015 18.7664 10.3015H19.2705C19.5466 10.3015 19.7705 10.0777 19.7705 9.80151C19.7705 9.52537 19.5466 9.30151 19.2705 9.30151H18.7664C18.0297 9.30151 17.3233 9.00888 16.8023 8.48797C16.664 8.34964 16.5417 8.19822 16.4368 8.03662H17.9517C18.2278 8.03662 18.4517 7.81276 18.4517 7.53662C18.4517 7.26048 18.2278 7.03662 17.9517 7.03662H16.0365C16.005 6.86874 15.9888 6.69717 15.9888 6.52393C15.9888 6.35069 16.005 6.17911 16.0365 6.01123H17.9517C18.2278 6.01123 18.4517 5.78737 18.4517 5.51123C18.4517 5.23509 18.2278 5.01123 17.9517 5.01123H16.4368C16.5417 4.84963 16.664 4.69821 16.8023 4.55988C17.3233 4.03896 18.0297 3.74634 18.7664 3.74634H19.2705C19.5466 3.74634 19.7705 3.52248 19.7705 3.24634C19.7705 2.9702 19.5466 2.74634 19.2705 2.74634H18.7664Z" fill="#454D54"/>
</svg>
