<svg width="24" height="24" viewBox="0 0 24 24" fill="none" xmlns="http://www.w3.org/2000/svg">
<g clip-path="url(#clip0_2145_14740)">
<path d="M16.0526 2H7.94737C6.31959 2 5 3.19391 5 4.66667V19.3333C5 20.8061 6.31959 22 7.94737 22H16.0526C17.6805 22 19 20.8061 19 19.3333V4.66667C19 3.19391 17.6805 2 16.0526 2Z" stroke="#ABB3BA" stroke-linecap="round" stroke-linejoin="round"/>
<path d="M12 5.7749C11.8619 5.7749 11.75 5.66297 11.75 5.5249C11.75 5.38683 11.8619 5.2749 12 5.2749" stroke="#ABB3BA"/>
<path d="M12 5.7749C12.1381 5.7749 12.25 5.66297 12.25 5.5249C12.25 5.38683 12.1381 5.2749 12 5.2749" stroke="#ABB3BA"/>
<path d="M22.5 15.8787V16.6969C22.5 17.1309 22.2893 17.5471 21.9142 17.854C21.5391 18.1608 21.0304 18.3333 20.5 18.3333H10.5C9.96957 18.3333 9.46086 18.1608 9.08579 17.854C8.71071 17.5471 8.5 17.1309 8.5 16.6969V10.9696C8.5 10.5356 8.71071 10.1194 9.08579 9.81253C9.46086 9.50565 9.96957 9.33325 10.5 9.33325H20.5C21.0304 9.33325 21.5391 9.50565 21.9142 9.81253C22.2893 10.1194 22.5 10.5356 22.5 10.9696V11.7878" fill="white"/>
<path d="M22.5 15.8787V16.6969C22.5 17.1309 22.2893 17.5471 21.9142 17.854C21.5391 18.1608 21.0304 18.3333 20.5 18.3333H10.5C9.96957 18.3333 9.46086 18.1608 9.08579 17.854C8.71071 17.5471 8.5 17.1309 8.5 16.6969V10.9696C8.5 10.5356 8.71071 10.1194 9.08579 9.81253C9.46086 9.50565 9.96957 9.33325 10.5 9.33325H20.5C21.0304 9.33325 21.5391 9.50565 21.9142 9.81253C22.2893 10.1194 22.5 10.5356 22.5 10.9696V11.7878" stroke="#ABB3BA" stroke-linecap="round" stroke-linejoin="round"/>
<path d="M22.5 16.3333C22.7652 16.3333 23.0196 16.2279 23.2071 16.0404C23.3947 15.8529 23.5 15.5985 23.5 15.3333V12.3333C23.5 12.0681 23.3947 11.8137 23.2071 11.6261C23.0196 11.4386 22.7652 11.3333 22.5 11.3333H20C19.3369 11.3333 18.7011 11.5967 18.2322 12.0655C17.7634 12.5343 17.5 13.1702 17.5 13.8333C17.5 14.4963 17.7634 15.1322 18.2322 15.6011C18.7011 16.0699 19.3369 16.3333 20 16.3333H22.5Z" fill="white" stroke="#ABB3BA" stroke-linecap="round" stroke-linejoin="round"/>
<path d="M20 14.0833C19.8619 14.0833 19.75 13.9713 19.75 13.8333C19.75 13.6952 19.8619 13.5833 20 13.5833" stroke="#ABB3BA"/>
<path d="M20 14.0833C20.1381 14.0833 20.25 13.9713 20.25 13.8333C20.25 13.6952 20.1381 13.5833 20 13.5833" stroke="#ABB3BA"/>
<path d="M0.101421 21.0409C-0.581996 21.7243 -0.581996 22.8323 0.101422 23.5158C0.78484 24.1992 1.89288 24.1992 2.5763 23.5158L23.7937 2.29832C24.4771 1.61491 24.4771 0.506867 23.7937 -0.17655C23.1103 -0.859968 22.0023 -0.859967 21.3188 -0.17655L0.101421 21.0409Z" fill="#ABB3BA" stroke="white" stroke-width="2"/>
</g>
<defs>
<clipPath id="clip0_2145_14740">
<rect width="24" height="24" fill="white"/>
</clipPath>
</defs>
</svg>
